<svg width="800" height="800" viewBox="0 0 800 800" fill="none" xmlns="http://www.w3.org/2000/svg">
<g clip-path="url(#clip0_1_2)">
<path d="M400 0C179.086 0 0 179.086 0 400C0 620.914 179.086 800 400 800C620.914 800 800 620.914 800 400C800 179.086 620.914 0 400 0ZM400 733.333C210.667 733.333 66.6667 589.333 66.6667 400C66.6667 210.667 210.667 66.6667 400 66.6667C589.333 66.6667 733.333 210.667 733.333 400C733.333 589.333 589.333 733.333 400 733.333Z" fill="#25D366"/>
<path d="M400 133.333C258.667 133.333 146.667 245.333 146.667 386.667C146.667 427.333 158.667 466.667 180 500L133.333 666.667L300 620C333.333 641.333 372.667 653.333 413.333 653.333C554.667 653.333 666.667 541.333 666.667 400C666.667 258.667 554.667 133.333 400 133.333ZM413.333 600C380 600 346.667 590.667 318.667 573.333L306.667 566.667L213.333 590.667L237.333 497.333L230.667 485.333C210.667 454.667 200 420 200 386.667C200 266.667 280 186.667 400 186.667C520 186.667 600 266.667 600 386.667C600 506.667 520 600 413.333 600Z" fill="#25D366"/>
<path d="M533.333 466.667C526.667 462.667 500 450.667 492 447.333C484 444 478.667 442.667 472 453.333C465.333 464 454.667 478.667 448 486.667C441.333 494.667 434.667 493.333 426.667 489.333C418.667 485.333 390.667 476 362.667 453.333C338.667 433.333 322.667 410.667 316 401.333C309.333 392 314.667 387.333 318.667 383.333C322.667 379.333 326.667 373.333 330.667 368C334.667 362.667 333.333 358.667 330.667 354.667C328 350.667 314.667 318.667 308 304C301.333 289.333 294.667 292 288 292C281.333 292 272 292 262.667 292C253.333 292 240 294.667 240 312C240 329.333 253.333 362.667 266.667 386.667C280 410.667 320 466.667 373.333 501.333C426.667 536 466.667 546.667 485.333 546.667C504 546.667 512 546.667 520 546.667C528 546.667 536 541.333 538.667 534.667C541.333 528 541.333 520 540 517.333C538.667 514.667 540 510.667 533.333 506.667Z" fill="white"/>
</g>
<defs>
<clipPath id="clip0_1_2">
<rect width="800" height="800" fill="white"/>
</clipPath>
</defs>
</svg>
